<?xml version="1.0" encoding="UTF-8" standalone="no"?>
<svg
   width="224"
   height="228"
   version="1.1"
   id="svg24"
   sodipodi:docname="icon.svg"
   inkscape:version="1.3.2 (091e20ef0f, 2023-11-25, custom)"
   inkscape:export-filename="extension_icons/icon48.png"
   inkscape:export-xdpi="6.8571429"
   inkscape:export-ydpi="6.8571429"
   xmlns:inkscape="http://www.inkscape.org/namespaces/inkscape"
   xmlns:sodipodi="http://sodipodi.sourceforge.net/DTD/sodipodi-0.dtd"
   xmlns="http://www.w3.org/2000/svg"
   xmlns:svg="http://www.w3.org/2000/svg">
  <sodipodi:namedview
     id="namedview24"
     pagecolor="#ffffff"
     bordercolor="#000000"
     borderopacity="0.25"
     inkscape:showpageshadow="2"
     inkscape:pageopacity="0.0"
     inkscape:pagecheckerboard="0"
     inkscape:deskcolor="#d1d1d1"
     inkscape:zoom="3.4298246"
     inkscape:cx="100.8798"
     inkscape:cy="77.846547"
     inkscape:window-width="1920"
     inkscape:window-height="986"
     inkscape:window-x="0"
     inkscape:window-y="0"
     inkscape:window-maximized="1"
     inkscape:current-layer="svg24" />
  <path
     fill="#08152E"
     d="M108.411 13.8562C115.877 13.1653 123.798 13.7859 131.168 15.0686C147.007 17.8254 161.837 25.6453 174.041 35.9644C176.73 38.2385 179.63 40.5665 181.666 43.4611C184.616 40.6387 187.536 37.7082 190.796 35.2397C193.578 33.1324 197.531 30.1701 201.251 30.7341C203.037 31.0049 204.558 32.1343 205.603 33.5729C206.707 35.093 207.119 36.7657 207.227 38.6052C207.422 41.9133 207.171 45.2698 207.042 48.5793C206.808 54.5682 206.494 60.5616 206.463 66.5554C206.43 72.7662 206.357 78.9987 206.513 85.2082C206.639 90.1835 207.472 95.6966 206.642 100.608C206.215 103.133 204.858 105.69 202.719 107.166Q202.349 107.422 201.946 107.621C198.474 109.326 188.555 107.276 184.646 106.921Q180.31 106.558 175.96 106.486C167.36 106.385 158.718 106.29 150.118 106.362C143.778 106.415 135.988 107.206 129.898 105.996C126.092 105.24 122.603 103.208 120.426 99.9422C118.525 97.09 117.181 92.6778 117.903 89.2579C118.546 86.2131 121.166 84.5526 123.58 82.9692C126.927 81.2313 130.25 79.54 133.473 77.5748C127.401 74.1202 119.114 73.3451 112.226 73.992C103.016 74.8571 92.8963 79.5187 86.4671 86.3399C83.5619 89.4222 81.2648 93.0224 78.5576 96.2718C75.799 99.5828 73.3366 101.811 68.878 102.198C63.9545 102.625 58.9198 102.033 53.9881 101.963C48.1157 101.881 39.7976 102.752 34.2633 101.387C31.7733 100.772 29.6648 99.3432 27.7297 97.7071C24.3045 94.8113 18.2922 90.1933 17.9577 85.4108C17.2235 74.9128 30.3181 57.1254 37.0738 49.506C41.6363 44.3603 46.7569 39.9544 52.1911 35.7582C68.9333 22.8302 87.1643 15.1321 108.411 13.8562Z"
     id="path2" />
  <path
     fill="#FCC9B5"
     d="M146.238 85.0878C146.426 85.4287 146.673 85.6591 146.545 86.0496C145.672 88.7176 137.92 92.3199 135.306 93.4977C134.729 93.7577 134.244 93.8205 133.619 93.8627C133.557 93.8669 133.495 93.8778 133.432 93.8846C133.395 93.8886 133.357 93.8916 133.32 93.8951L131.279 92.5617C135.849 89.4985 141.352 87.6392 146.238 85.0878Z"
     id="path3" />
  <path
     fill="#0B0A17"
     d="M102.932 25.3516L102.366 25.0555C104.891 24.075 110.228 24.4609 113.076 24.4133C115.174 24.3782 116.173 23.6523 117.521 23.5617C122.091 23.2548 129.885 24.0795 134.088 25.882L131.91 25.6447C134.99 26.4951 143.096 28.4698 145.189 30.539C145.22 30.5695 145.252 30.5989 145.283 30.6288C140.442 28.8056 135.441 27.0179 130.286 26.3862C121.203 24.9265 112.096 24.7048 102.932 25.3516Z"
     id="path4" />
  <path
     fill="#FE524A"
     d="M102.932 25.3516C112.096 24.7048 121.203 24.9265 130.286 26.3862C135.441 27.0179 140.442 28.8056 145.283 30.6288C150.746 33.1699 156.784 35.7207 161.43 39.6538C166.337 42.7545 171.247 46.9266 174.611 51.6551C176.532 54.3547 178.134 57.293 180.328 59.7861C180.357 59.819 180.387 59.8512 180.416 59.8837C183.076 58.1486 193.725 46.8774 195.469 44.102C195.841 49.9664 195.101 55.7846 195.037 61.6448C194.953 69.3115 194.928 76.9607 194.712 84.6268C194.604 88.4818 194.652 92.4154 194.083 96.2337C189.754 96.4889 185.754 95.3282 181.477 95.0609C176.785 94.7677 172.081 94.7751 167.385 94.6046C162.056 94.4111 156.733 94.056 151.405 93.8406Q146.654 93.6442 141.904 93.8542C139.079 93.9608 136.131 94.2519 133.32 93.8951C133.357 93.8916 133.395 93.8886 133.432 93.8846C133.495 93.8778 133.557 93.8669 133.619 93.8627C134.244 93.8205 134.729 93.7577 135.306 93.4977C137.92 92.3199 145.672 88.7176 146.545 86.0496C146.673 85.6591 146.426 85.4287 146.238 85.0878C147.445 83.7489 149.686 82.7401 151.139 81.5716C152.018 80.8643 153 79.904 153.092 78.7092C153.199 77.332 152.31 76.3203 151.497 75.3238Q150.257 73.8673 148.962 72.4603C138.262 64.624 120.402 61.0166 107.359 63.0098C96.4481 64.6772 83.2501 74.188 75.8516 82.1351C72.7537 85.4628 70.2815 89.3557 66.9703 92.4757C63.9492 91.4862 61.1303 91.1996 57.9626 91.2459C55.0459 91.396 51.8581 91.6864 48.9658 91.2671C44.5124 91.2651 39.5153 91.0336 35.1761 90.0289C33.3713 89.6111 32.4826 89.3086 31.4685 87.684C31.1332 87.0812 30.9193 86.3658 30.816 85.6865C29.9033 79.6836 35.4033 69.9334 38.8619 65.203C43.13 59.3655 48.4042 53.8731 53.74 49.0046C69.0352 35.0489 82.3443 28.5386 102.932 25.3516Z"
     id="path5" />
  <path
     fill="#CE1129"
     d="M146.711 67.3945C148.459 68.7939 152.082 71.6539 152.333 74.0283C152.382 74.4972 152.286 74.599 152.057 74.988L151.497 75.3238Q150.257 73.8673 148.962 72.4603C148.515 70.6127 146.426 69.0924 145.064 67.882L146.711 67.3945Z"
     id="path6" />
  <path
     fill="#9F141C"
     d="M84.6633 64.1858L84.5907 64.3434L84.7649 64.3641C84.1678 64.8137 83.5994 65.2737 83.0444 65.7743L83.1169 65.9009C83.4667 65.6626 83.8382 65.3467 84.2569 65.2566C83.1178 66.4781 81.7165 67.2554 80.4008 68.2573C78.0598 70.0399 75.7216 71.9111 73.5066 73.8468C68.8756 77.894 65.4007 82.5558 61.4202 87.1779C60.6605 88.0601 58.1182 90.1963 57.9626 91.2459C55.0459 91.396 51.8581 91.6864 48.9658 91.2671C51.0176 91.106 54.147 91.4452 55.9205 90.3679C55.7919 89.7896 55.2666 90.0865 54.8355 89.7333C55.3961 89.6789 56.3673 89.6681 56.8654 89.4371C57.5035 89.1413 66.6339 78.526 68.1035 77.0292C72.9089 72.135 78.4854 67.2427 84.6633 64.1858Z"
     id="path7" />
  <defs
     id="defs8">
    <linearGradient
       id="gradient_0"
       gradientUnits="userSpaceOnUse"
       x1="151.43173"
       y1="32.037899"
       x2="141.58836"
       y2="35.765163">
      <stop
         offset="0"
         stop-color="#FF9B81"
         id="stop7" />
      <stop
         offset="1"
         stop-color="#FFC8A4"
         id="stop8" />
    </linearGradient>
  </defs>
  <path
     fill="url(#gradient_0)"
     d="M130.286 26.3862C135.441 27.0179 140.442 28.8056 145.283 30.6288C150.746 33.1699 156.784 35.7207 161.43 39.6538L160.961 39.8621C159.687 39.0073 152.93 35.2759 152.395 34.5924C152.366 34.5553 152.34 34.5159 152.312 34.4776L152.125 34.798C152.541 35.7725 153.624 36.2114 154.343 36.9711C153.944 37.5835 153.51 38.1411 153.454 38.8919C154.307 40.2388 155.699 39.5189 156.976 40.0396L156.758 40.3313C155.198 40.8486 154.075 40.1775 152.682 39.5263C153.223 40.6005 154.466 40.8906 155.547 41.2873C154.224 41.593 151.099 39.6724 149.801 39.1421C145.7 37.4661 141.423 36.3278 137.243 34.8832L137.571 34.6713C139.246 34.6441 141.522 35.7359 143.187 36.1623L143.389 35.8434C143.344 33.8345 141.134 32.6091 140.012 31.2115C139.504 30.5788 139.126 29.7462 138.756 29.0239C137.136 28.4452 134.011 27.0649 132.344 27.4188C132.621 28.1811 134.58 29.2696 135.262 29.9813C135.163 29.9763 135.12 29.98 135.015 29.9411C133.411 29.3457 131.141 27.8696 130.286 26.3862Z"
     id="path8" />
  <path
     fill="#B83F42"
     d="M84.6633 64.1858C84.7569 64.0839 84.7712 64.0618 84.8969 63.9643C87.5646 61.8955 91.3704 60.037 94.5471 58.9819C100.122 57.13 110.39 55.656 116.136 56.7376C126.576 56.986 138.62 60.8391 146.711 67.3945L145.064 67.882C146.426 69.0924 148.515 70.6127 148.962 72.4603C138.262 64.624 120.402 61.0166 107.359 63.0098C96.4481 64.6772 83.2501 74.188 75.8516 82.1351C72.7537 85.4628 70.2815 89.3557 66.9703 92.4757C63.9492 91.4862 61.1303 91.1996 57.9626 91.2459C58.1182 90.1963 60.6605 88.0601 61.4202 87.1779C65.4007 82.5558 68.8756 77.894 73.5066 73.8468C75.7216 71.9111 78.0598 70.0399 80.4008 68.2573C81.7165 67.2554 83.1178 66.4781 84.2569 65.2566C83.8382 65.3467 83.4667 65.6626 83.1169 65.9009L83.0444 65.7743C83.5994 65.2737 84.1678 64.8137 84.7649 64.3641L84.5907 64.3434L84.6633 64.1858Z"
     id="path9" />
  <path
     fill="#9F141C"
     d="M116.136 56.7376C126.576 56.986 138.62 60.8391 146.711 67.3945L145.064 67.882C141.855 64.5818 126.001 59.4589 121.322 58.9909L121.873 58.767L120.963 58.912C122.315 58.3756 126.767 59.8005 128.354 60.1479L128.216 59.7728C125.922 57.7058 120.866 57.4088 117.822 57.2237C116.609 57.15 115.327 57.267 114.156 56.9106L116.136 56.7376Z"
     id="path10" />
  <defs
     id="defs11">
    <linearGradient
       id="gradient_1"
       gradientUnits="userSpaceOnUse"
       x1="89.945381"
       y1="65.154915"
       x2="73.324684"
       y2="34.909431">
      <stop
         offset="0"
         stop-color="#FDD5B3"
         id="stop10" />
      <stop
         offset="1"
         stop-color="#FDFFF9"
         id="stop11" />
    </linearGradient>
  </defs>
  <path
     fill="url(#gradient_1)"
     d="M102.932 25.3516C112.096 24.7048 121.203 24.9265 130.286 26.3862C131.141 27.8696 133.411 29.3457 135.015 29.9411C135.12 29.98 135.163 29.9763 135.262 29.9813C134.58 29.2696 132.621 28.1811 132.344 27.4188C134.011 27.0649 137.136 28.4452 138.756 29.0239C139.126 29.7462 139.504 30.5788 140.012 31.2115C141.134 32.6091 143.344 33.8345 143.389 35.8434L143.187 36.1623C141.522 35.7359 139.246 34.6441 137.571 34.6713L137.243 34.8832C130.522 33.5002 123.924 32.8589 117.058 32.7532C112.023 32.6757 106.952 32.7768 101.968 33.5593C88.83 35.6216 76.4234 42.1462 65.4411 49.3767C59.8767 53.0402 54.3113 58.0514 50.165 63.2524C45.6651 68.8969 36.6827 84.4763 31.4685 87.684C31.1332 87.0812 30.9193 86.3658 30.816 85.6865C29.9033 79.6836 35.4033 69.9334 38.8619 65.203C43.13 59.3655 48.4042 53.8731 53.74 49.0046C69.0352 35.0489 82.3443 28.5386 102.932 25.3516Z"
     id="path11" />
  <path
     fill="#08152e"
     d="m 40.3161,181.858 c -2.6902,5.259 -6.8632,10.628 -12.761,12.471 -0.2894,0.0907 -0.582633,0.16633 -0.8797,0.227 -0.297067,0.0613 -0.596467,0.107 -0.8982,0.137 -0.301733,0.0307 -0.6042,0.0457 -0.9074,0.045 -0.303267,0 -0.605733,-0.0157 -0.9074,-0.047 -0.3016,-0.0307 -0.6009,-0.077 -0.8979,-0.139 -0.296933,-0.0613 -0.589967,-0.13767 -0.8791,-0.229 -0.2892,-0.0913 -0.573,-0.197 -0.8514,-0.317 -0.278467,-0.12 -0.5501,-0.254 -0.8149,-0.402 -2.1361,-1.175 -3.565,-3.199 -4.216,-5.524 -1.7978,-6.422 0.6833,-19.456 1.508,-26.311 0.571133,-4.806 1.077467,-9.619 1.519,-14.439 0.5025,-5.561 0.3395,-11.291 1.2011,-16.798 0.3159,-2.019 0.8457,-4.036 1.8644,-5.822 2.2963,-4.028 7.6476,-7.818 12.1018,-9.008 2.1941,-0.587 4.3488,-0.541 6.5827,-0.227 7.3933,1.037 14.5884,3.577 21.8937,5.11 8.9929,1.887 18.1635,3.087 27.1983,4.833 5.0713,0.98 10.6879,1.54 15.2119,4.21 2.184,1.289 3.479,3.196 4.101,5.632 0.781,3.062 0.772,7.071 -0.894,9.853 -3.007,5.022 -13.8238,9.066 -14.2355,9.631 -0.0757,0.103 -0.0698,0.247 -0.1046,0.37 1.2062,1.804 10.0901,3.382 12.5011,3.862 9.5,1.889 18.9688,-0.0816 27.107,-4.256 3.19686,-1.6398 5.57621,-4.68408 7.57,-7.673 2.57754,-3.86404 3.75718,-8.50105 5.3995,-12.84585 0.50019,-1.32326 0.59483,-2.82863 1.35465,-4.02189 1.25313,-1.96798 3.414,-3.88984 5.0653,-4.83035 5.51151,-3.13913 16.79599,0.65246 35.19855,2.48909 3.819,0.391 8.004,0.552 11.645,1.83 3.318,1.166 6.52,3.458 8.064,6.701 3.214,6.746 -1.944,21.546 -4.491,28.431 -1.53,4.135 -3.283,8.109 -5.677,11.83 -8.297,12.896 -24.712,26.992 -38.617,33.378 -7.255,3.331 -14.761,6.242 -22.546,8.067 -17.351,4.068 -37.281,2.932 -54.0085,-3.267 -1.7692,-0.65467 -3.515933,-1.36433 -5.2402,-2.129 -1.724267,-0.76533 -3.422667,-1.584 -5.0952,-2.456 -1.672533,-0.872 -3.315867,-1.79633 -4.93,-2.773 -1.614067,-0.976 -3.1957,-2.00233 -4.7449,-3.079 -1.5492,-1.076 -3.062867,-2.2 -4.541,-3.372 -1.478067,-1.172 -2.9177,-2.38933 -4.3189,-3.652 -1.401133,-1.26333 -2.760967,-2.56933 -4.0795,-3.918 -1.318533,-1.34933 -2.593167,-2.73867 -3.8239,-4.168 -2.0517,-2.365 -3.7825,-4.958 -5.7268,-7.403 z"
     id="path12"
     sodipodi:nodetypes="cccccccssccccscccccscccccaaaasccccsccccsccscccc" />
  <path
     fill="#98FEE3"
     d="M29.0097 160.477C29.7474 162.057 28.7384 164.364 28.391 166.017C28.6252 165.913 28.8643 165.84 29.1085 165.765C29.3053 166.033 29.474 166.307 29.6408 166.595C30.6416 166.229 31.8595 166.112 32.7892 165.687C33.6649 165.287 34.6064 164.17 34.8797 163.252C35.0583 162.652 34.9431 162.38 34.6503 161.858L33.5342 161.557L33.4799 161.837L33.0272 161.31C33.7109 161.308 34.5132 161.373 35.1808 161.24C35.8718 161.102 35.9965 160.653 36.3462 160.107C36.0391 162.412 34.6394 166.356 35.2301 168.509C33.2058 171.745 31.3144 176.93 28.6649 179.495C28.1806 179.964 27.9453 180.108 27.2777 180.102C27.1898 180.017 27.0926 179.918 27.0306 179.813C25.0635 176.465 28.2279 164.315 29.0097 160.477Z"
     id="path13" />
  <defs
     id="defs14">
    <linearGradient
       id="gradient_2"
       gradientUnits="userSpaceOnUse"
       x1="141.42117"
       y1="138.68008"
       x2="144.17688"
       y2="143.99068">
      <stop
         offset="0"
         stop-color="#78959E"
         id="stop13" />
      <stop
         offset="1"
         stop-color="#ADC4C6"
         id="stop14" />
    </linearGradient>
  </defs>
  <path
     fill="#D0F8DD"
     d="M29.0097 160.477C29.2692 155.442 30.1762 150.268 30.7659 145.249C31.2043 141.517 31.7049 132.464 32.9025 129.339C33.2021 128.557 33.8541 128.155 34.589 127.824C35.959 127.207 38.3835 126.729 39.8235 127.257C39.8056 128.469 39.8814 129.767 39.5924 130.948C39.0241 139.606 37.8851 148.24 36.7667 156.842L36.3462 160.107C35.9965 160.653 35.8718 161.102 35.1808 161.24C34.5132 161.373 33.7109 161.308 33.0272 161.31L33.4799 161.837L33.5342 161.557L34.6503 161.858C34.9431 162.38 35.0583 162.652 34.8797 163.252C34.6064 164.17 33.6649 165.287 32.7892 165.687C31.8595 166.112 30.6416 166.229 29.6408 166.595C29.474 166.307 29.3053 166.033 29.1085 165.765C28.8643 165.84 28.6252 165.913 28.391 166.017C28.7384 164.364 29.7474 162.057 29.0097 160.477Z"
     id="path15" />
  <path
     fill="#259C84"
     d="M196.98 142.684C198.118 151.091 188.66 169.22 183.409 176.115C179.669 181.027 175.418 184.906 170.664 188.811C168.304 190.75 165.964 192.776 163.441 194.501C152.167 202.207 138.791 206.692 125.319 208.512C102.711 211.568 79.5489 204.116 61.5944 190.378C55.2366 185.513 50.3791 178.244 46.1301 171.532C43.9004 169.175 43.3171 166.195 40.1889 163.476C40.4377 163.169 41.1648 163.159 41.5651 163.088C43.7514 162.799 45.0712 163.524 46.7645 164.825C48.6377 166.265 50.3142 168.056 52.0546 169.66C54.7999 172.19 57.6999 174.677 60.6648 176.942C63.1309 178.212 65.4364 180.92 67.4986 182.773Q69.6262 184.65 72.0037 186.199C78.0958 190.222 85.5769 193.866 92.5968 195.852C104.864 199.324 120.898 199.264 133.387 196.708C146.982 193.925 157.698 186.738 168.506 178.425C171.34 176.246 174.467 174.134 177.014 171.625C179.837 168.843 182.372 165.566 184.757 162.405C186.586 159.981 188.388 157.457 189.886 154.815C191.393 152.159 192.635 149.381 194.322 146.826C195.416 145.555 196.546 144.347 196.98 142.684Z"
     id="path16" />
  <path
     fill="#0B644C"
     d="M41.5651 163.088C43.7514 162.799 45.0712 163.524 46.7645 164.825C48.6377 166.265 50.3142 168.056 52.0546 169.66C54.7999 172.19 57.6999 174.677 60.6648 176.942C60.5554 176.987 60.4452 177.03 60.3332 177.068C59.5029 177.352 58.6463 176.991 57.8655 176.698C54.1594 175.304 50.7897 172.084 48.1215 169.23C46.3735 167.36 45.0651 165.578 42.6965 164.407L42.43 164.545C43.2073 166.988 45.596 168.702 46.0924 171.32C46.1057 171.391 46.1175 171.461 46.1301 171.532C43.9004 169.175 43.3171 166.195 40.1889 163.476C40.4377 163.169 41.1648 163.159 41.5651 163.088Z"
     id="path17" />
  <path
     fill="#48DC9F"
     d="M39.8235 127.257C45.3135 128.8 50.9541 130.311 56.527 131.504C61.8111 132.635 90.3137 136.905 92.5789 139.447C92.9498 140.271 93.2014 141.248 92.882 142.134C92.6387 142.809 92.0648 143.271 91.4177 143.54C90.1048 144.087 88.5244 144.134 87.1567 144.534C84.7193 145.313 78.4266 148.736 76.4709 148.732C75.4741 149.322 74.8118 149.848 74.5242 151.013C74.2561 152.1 74.6267 153.104 75.2027 154.025C77.5261 157.741 85.3112 162.794 89.1811 165.056C90.4904 165.821 92.3192 166.438 93.4752 167.341C106.351 172.202 119.524 172.543 132.489 167.791C142.668 164.06 150.447 158.11 153.562 147.414C154.761 143.295 155.498 139.016 157.309 135.103C163.02 135.865 194.226 138.477 196.791 140.593C197.188 141.237 197.04 141.965 196.98 142.684C196.546 144.347 195.416 145.555 194.322 146.826C192.635 149.381 191.393 152.159 189.886 154.815C188.388 157.457 186.586 159.981 184.757 162.405C182.372 165.566 179.837 168.843 177.014 171.625C174.467 174.134 171.34 176.246 168.506 178.425C157.698 186.738 146.982 193.925 133.387 196.708C120.898 199.264 104.864 199.324 92.5968 195.852C85.5769 193.866 78.0958 190.222 72.0037 186.199Q69.6262 184.65 67.4986 182.773C65.4364 180.92 63.1309 178.212 60.6648 176.942C57.6999 174.677 54.7999 172.19 52.0546 169.66C50.3142 168.056 48.6377 166.265 46.7645 164.825C45.0712 163.524 43.7514 162.799 41.5651 163.088C41.1648 163.159 40.4377 163.169 40.1889 163.476C38.2693 164.948 36.7353 166.514 35.2809 168.441L35.2301 168.509C34.6394 166.356 36.0391 162.412 36.3462 160.107L36.7667 156.842C37.8851 148.24 39.0241 139.606 39.5924 130.948C39.8814 129.767 39.8056 128.469 39.8235 127.257Z"
     id="path18" />
  <path
     fill="#38CB91"
     d="M74.4721 146.848C74.1334 146.678 73.9051 146.283 73.6821 145.982C73.8072 145.451 74.0032 145.238 74.4731 144.943C75.5876 144.242 78.4279 143.524 79.7448 143.609C80.6171 143.666 81.6738 144.095 82.5469 144.29C79.8621 144.758 77.2614 145.676 74.648 146.435L74.4721 146.848Z"
     id="path19" />
  <path
     fill="#259C84"
     d="M82.5469 144.29C84.2684 143.963 85.4649 143.93 87.1567 144.534C84.7193 145.313 78.4266 148.736 76.4709 148.732C75.9677 147.757 75.4569 147.322 74.4721 146.848L74.648 146.435C77.2614 145.676 79.8621 144.758 82.5469 144.29Z"
     id="path20" />
  <path
     fill="#38CB91"
     d="M95.3171 174.164C105.095 177.419 110.839 177.717 120.916 177.478C121.464 177.507 121.998 177.51 122.522 177.685C120.371 178.078 117.935 178.169 115.75 178.141C114.752 178.128 113.574 177.894 112.599 178.057C110.32 178.438 108.118 179.765 105.804 180.209C105.436 179.712 104.996 179.052 104.486 178.697C103.637 178.108 102.421 177.929 101.499 177.427C100.817 177.055 100.271 176.381 99.5715 176.078C98.3716 175.558 95.9945 175.243 95.3171 174.164Z"
     id="path21" />
  <path
     fill="#38CB91"
     d="M168.953 141.364C175.05 142.189 180.727 143.026 186.465 145.366C187.217 146.375 190.727 147.308 192.092 148.592C191.638 149.539 191.045 150.366 190.441 151.22C184.796 150.709 179.348 149.872 175.032 145.793C174.082 144.895 173.078 143.124 172.003 142.539C171.003 141.994 169.564 141.927 168.447 141.652L168.953 141.364Z"
     id="path22" />
  <path
     fill="#38CB91"
     d="M39.5924 130.948C39.6297 130.982 39.6662 131.017 39.7041 131.05C40.2058 131.488 48.9168 134.176 50.1191 134.496C48.4159 134.349 47.1012 134.031 45.5625 133.237L45.2764 133.402C46.1029 135.984 45.8174 135.246 45.5923 137.673C45.5283 138.363 45.5826 139.111 45.2464 139.74C44.3809 141.357 42.1707 140.967 41.144 142.274C39.7742 144.016 39.9185 147.11 39.2223 149.152C38.9658 149.905 38.2822 150.384 37.9626 151.117C39.1803 152.159 39.6216 154.768 39.7273 156.305C39.8183 157.629 39.4991 158.524 38.857 159.656C39.7421 160.702 40.5512 162.238 41.5651 163.088C41.1648 163.159 40.4377 163.169 40.1889 163.476C38.2693 164.948 36.7353 166.514 35.2809 168.441L35.2301 168.509C34.6394 166.356 36.0391 162.412 36.3462 160.107L36.7667 156.842C37.8851 148.24 39.0241 139.606 39.5924 130.948Z"
     id="path23" />
  <path
     fill="#D0F8DD"
     d="M157.309 135.103C163.02 135.865 194.226 138.477 196.791 140.593C197.188 141.237 197.04 141.965 196.98 142.684C196.546 144.347 195.416 145.555 194.322 146.826C192.923 146.637 191.239 146.738 189.917 146.434C188.691 146.151 187.789 145.4 186.465 145.366C180.727 143.026 175.05 142.189 168.953 141.364C166.932 140.899 164.697 140.984 162.636 141.051C162.022 149.713 161.796 154.122 155.734 160.721C153.969 162.642 152.17 164.546 150.199 166.256C142.096 173.284 131.289 176.054 120.916 177.478C110.839 177.717 105.095 177.419 95.3171 174.164C94.3434 173.493 92.9326 173.041 91.853 172.515L91.8814 172.165L91.8966 172.371L92.5437 172.264L92.4811 172.234C93.987 173.364 95.3105 173.427 96.9087 174.163C97.5514 174.458 98.1196 174.813 98.7919 175.079C98.9915 175.054 99.3722 175.068 99.5091 174.925C100.177 174.23 100.556 171.081 100.506 170.064C98.242 169.291 95.1992 168.826 93.1752 167.612L93.4752 167.341C106.351 172.202 119.524 172.543 132.489 167.791C142.668 164.06 150.447 158.11 153.562 147.414C154.761 143.295 155.498 139.016 157.309 135.103Z"
     id="path24" />
</svg>
